<svg id="Capa_1" enable-background="new 0 0 512 512" height="512" viewBox="0 0 512 512" width="512" xmlns="http://www.w3.org/2000/svg"><g><g><path d="m165.11 504.5h-110.04c0-96.62 49.42-138.35 49.42-138.35-113.63-127.13 43.26-283.82 116.94-346.02 19.96-16.84 49.18-16.84 69.14 0 73.68 62.2 230.57 218.89 116.94 346.02 0 0 49.42 41.73 49.42 138.35h-110.04l-90.89-50.715z" fill="#c7c5cb"/><path d="m134.49 366.15c-113.63-127.13 43.26-283.82 116.94-346.02 5.877-4.958 12.56-8.445 19.57-10.483-16.797-4.884-35.487-1.398-49.57 10.483-73.68 62.2-230.57 218.89-116.94 346.02 0 0-49.42 41.73-49.42 138.35h30c0-96.62 49.42-138.35 49.42-138.35z" fill="#b2b0bc"/><path d="m379.24 238.03c0 35.25-14.8 64.36-38.53 84.22l-9.46-20.82c-4.76-10.49-19.67-10.49-24.43 0l-19.3 42.47-19.3-42.47c-4.77-10.49-19.67-10.49-24.44 0l-19.3 42.47-19.3-42.47c-4.76-10.49-19.67-10.49-24.43 0l-9.46 20.82c-23.73-19.86-38.53-48.97-38.53-84.22 0-34.64 14.29-58.16 37.3-72.91l10.69 23.51c4.76 10.49 19.67 10.49 24.43 0l18.99-41.78c.2-.03.39-.05.59-.08l19.02 41.86c4.77 10.49 19.67 10.49 24.44 0l19.02-41.86c.2.03.39.05.59.08l18.99 41.78c4.76 10.49 19.67 10.49 24.43 0l10.69-23.51c23.01 14.75 37.3 38.27 37.3 72.91z" fill="#da9d81"/><path d="m162.76 238.03c0-22.188 5.87-39.806 16.132-53.487l-8.832-19.423c-23.01 14.75-37.3 38.27-37.3 72.91 0 35.25 14.8 64.36 38.53 84.22l9.46-20.82c.182-.4.383-.78.593-1.15-11.775-17.284-18.583-38.353-18.583-62.25z" fill="#c7856a"/><g fill="#e8e8e8"><path d="m287.24 146.77-19.02 41.86c-4.77 10.49-19.67 10.49-24.44 0l-19.02-41.86c9.98-1.34 20.45-1.97 31.24-1.97s21.26.63 31.24 1.97z"/><path d="m224.17 146.85-18.99 41.78c-4.76 10.49-19.67 10.49-24.43 0l-10.69-23.51c14.89-9.56 33.43-15.44 54.11-18.27z"/><path d="m341.94 165.12-10.69 23.51c-4.76 10.49-19.67 10.49-24.43 0l-18.99-41.78c20.68 2.83 39.22 8.71 54.11 18.27z"/><path d="m347.43 494.5c0 3.38-.18 6.72-.54 10h-181.78c-.36-3.28-.54-6.62-.54-10 0-50.5 40.93-91.43 91.43-91.43s91.43 40.93 91.43 91.43z"/><path d="m331.25 301.43c-4.76-10.49-19.67-10.49-24.43 0l-19.3 42.47-19.3-42.47c-4.77-10.49-19.67-10.49-24.44 0l-19.3 42.47-19.3-42.47c-4.76-10.49-19.67-10.49-24.43 0l-9.46 20.82c14.35 12.04 31.97 20.69 51.55 25.26l3.65.8c9.45 1.95 19.34 2.96 29.51 2.96s20.06-1.01 29.51-2.96l3.65-.8c19.58-4.57 37.2-13.22 51.55-25.26z"/></g></g><g><path d="m188.546 220.933c-4.142 0-7.499 3.358-7.499 7.499v12.962c0 4.142 3.358 7.499 7.499 7.499s7.499-3.358 7.499-7.499v-12.962c.001-4.141-3.357-7.499-7.499-7.499z"/><path d="m323.453 220.933c-4.142 0-7.499 3.358-7.499 7.499v12.962c0 4.142 3.358 7.499 7.499 7.499 4.142 0 7.499-3.358 7.499-7.499v-12.962c0-4.141-3.357-7.499-7.499-7.499z"/><path d="m278.711 235.355c-3.123-2.721-7.86-2.396-10.58.726-6.413 7.359-17.83 7.38-24.26 0-2.721-3.123-7.459-3.447-10.58-.727-3.123 2.721-3.448 7.458-.727 10.581 12.4 14.229 34.483 14.219 46.874 0 2.72-3.122 2.395-7.859-.727-10.58z"/><path d="m195.363 113.747v-14.961c0-4.141-3.358-7.499-7.499-7.499s-7.499 3.358-7.499 7.499v14.961c0 4.142 3.358 7.499 7.499 7.499s7.499-3.357 7.499-7.499z"/><path d="m331.635 113.747v-14.961c0-4.141-3.358-7.499-7.499-7.499-4.142 0-7.499 3.358-7.499 7.499v14.961c0 4.142 3.358 7.499 7.499 7.499s7.499-3.357 7.499-7.499z"/><path d="m125.273 238.057c0 35.767 14.633 67.713 41.213 89.963 49.454 41.485 130.546 40.668 179.029-.001 1.094-1.439 41.212-30.393 41.212-89.962 0-35.226-13.706-61.876-40.745-79.214-26.571-17.059-58.982-21.506-89.982-21.506-73.185 0-130.727 28.602-130.727 100.72zm63.239 65.011c2.476-2.926 7.905-2.791 9.845 1.485l14.731 32.417c-11.929-4.011-22.964-9.747-32.54-16.931 7.358-15.996 6.989-15.821 7.964-16.971zm45.076 38.94 17.02-37.453c2.102-4.62 8.667-4.656 10.784-.001l17.021 37.454c-14.593 2.363-30.232 2.363-44.825 0zm65.323-5.038c15.335-33.54 14.635-32.694 15.659-33.902 2.46-2.905 7.893-2.816 9.845 1.485l7.036 15.486c-9.576 7.184-20.612 12.92-32.54 16.931zm72.817-98.913c0 27.762-10.045 52.852-28.489 71.669-4.788-10.065-5.26-12.813-8.423-16.483-7.908-9.177-22.159-9.536-30.566-1.09-4.517 4.537-4.536 7.693-16.734 33.637l-12.471-27.444c-7.437-16.355-30.668-16.322-38.091.001l-12.471 27.442c-13.135-28.733-12.494-27.886-13.932-30.138-8.787-13.763-29.713-12.519-36.621 2.696l-5.169 11.377c-18.444-18.816-28.489-43.906-28.489-71.669 0-26.471 8.991-47.111 26.752-61.481l6.905 15.185c7.425 16.363 30.666 16.349 38.084.004l12.473-27.442 12.469 27.443c5.848 12.867 18.945 12.232 19.045 12.262.1-.022 13.236.513 19.046-12.264l12.468-27.441 12.471 27.438c7.424 16.361 30.667 16.35 38.083.005l6.908-15.19c17.761 14.372 26.752 35.011 26.752 61.483zm-39.409-69.88-7.905 17.386c-2.09 4.605-8.643 4.685-10.771-.004l-13.096-28.813c12.028 2.647 22.659 6.472 31.772 11.431zm-56.199-15.032-14.728 32.413c-2.135 4.695-8.69 4.604-10.784.002l-14.729-32.415c12.951-1.08 27.283-1.081 40.241 0zm-64.666 3.601-13.098 28.817c-2.1 4.628-8.664 4.642-10.772-.005l-7.903-17.381c9.113-4.959 19.744-8.784 31.773-11.431z"/><path d="m387.994 108.683c-31.446-39.829-67.708-73.229-92.592-94.236-22.832-19.263-55.974-19.262-78.807.001-27.206 22.967-66.493 59.434-99.151 102.734-39.011 51.723-59.336 100.762-60.411 145.754-.099 4.141 3.178 7.577 7.318 7.676.062.001.122.002.183.002 4.058 0 7.396-3.241 7.494-7.32.998-41.792 20.307-87.913 57.391-137.081 31.821-42.189 70.232-77.833 96.85-100.303 17.226-14.535 42.233-14.535 59.46-.001 24.354 20.559 59.823 53.221 90.494 92.068 2.567 3.251 7.283 3.805 10.533 1.239 3.25-2.567 3.805-7.283 1.238-10.533z"/><path d="m55.09 512h401.82c4.142 0 7.499-3.358 7.499-7.499 0-80.734-33.248-124.431-46.647-138.763 28.665-34.499 40.882-73.587 36.324-116.296-3.876-36.323-19.952-75.33-47.781-115.94-2.341-3.416-7.009-4.288-10.425-1.947s-4.288 7.009-1.947 10.425c58.711 85.672 61.393 159.417 7.971 219.186-2.812 3.146-2.475 8 .753 10.727.455.384 44.235 38.36 46.651 125.107h-45.825v-44.211c0-4.142-3.358-7.499-7.499-7.499-4.142 0-7.499 3.358-7.499 7.499v44.211h-33.597c1.374-55.757-43.571-101.42-98.887-101.42-55.33 0-100.259 45.678-98.886 101.42h-33.597v-44.211c0-4.142-3.358-7.499-7.499-7.499s-7.499 3.358-7.499 7.499v44.211h-45.826c1.238-43.901 13.177-74.931 23.28-93.561 11.554-21.306 23.27-31.462 23.369-31.547 3.224-2.723 3.569-7.577.753-10.727-19.049-21.313-31.09-44.68-35.789-69.452-.772-4.069-4.695-6.743-8.766-5.971-4.069.772-6.742 4.696-5.97 8.765 4.814 25.378 16.468 49.31 34.667 71.228-13.399 14.331-46.648 58.029-46.648 138.763.001 4.144 3.358 7.502 7.5 7.502zm200.91-101.42c47.059 0 85.252 38.943 83.886 86.422h-167.771c-1.365-47.417 36.766-86.422 83.885-86.422z"/></g></g></svg>